<svg width="182" height="60" viewBox="0 0 182 60" fill="none" xmlns="http://www.w3.org/2000/svg">
<g clip-path="url(#clip0_3089_12226)">
<path d="M66.8903 6.20343H69.3546C69.465 6.20378 69.5739 6.22878 69.6734 6.27661C69.7729 6.32444 69.8605 6.39389 69.9298 6.47993L75.4456 13.3924C75.5144 13.4792 75.6019 13.5493 75.7015 13.5975C75.801 13.6456 75.9102 13.6707 76.0208 13.6707C76.1314 13.6707 76.2405 13.6456 76.3401 13.5975C76.4397 13.5493 76.5272 13.4792 76.596 13.3924L82.1118 6.47993C82.1809 6.39368 82.2685 6.32407 82.3681 6.27622C82.4676 6.22837 82.5766 6.2035 82.687 6.20343H85.1494C85.2462 6.20317 85.3421 6.2221 85.4316 6.25913C85.5211 6.29616 85.6024 6.35055 85.6709 6.4192C85.7394 6.48784 85.7936 6.56937 85.8306 6.6591C85.8675 6.74884 85.8864 6.845 85.8861 6.94208V23.9427C85.8864 24.0398 85.8675 24.136 85.8306 24.2257C85.7936 24.3154 85.7394 24.397 85.6709 24.4656C85.6024 24.5343 85.5211 24.5887 85.4316 24.6257C85.3421 24.6627 85.2462 24.6816 85.1494 24.6814H82.6889C82.592 24.6816 82.496 24.6627 82.4064 24.6257C82.3168 24.5887 82.2353 24.5344 82.1667 24.4657C82.0981 24.3971 82.0436 24.3156 82.0065 24.2259C81.9693 24.1361 81.9502 24.0399 81.9502 23.9427V14.6386C81.9503 14.4858 81.903 14.3368 81.815 14.212C81.7271 14.0873 81.6026 13.9929 81.459 13.942C81.3153 13.8911 81.1594 13.8861 81.0127 13.9278C80.8661 13.9694 80.736 14.0556 80.6402 14.1745L76.6019 19.2126C76.5329 19.2991 76.4454 19.3689 76.3458 19.4169C76.2462 19.4649 76.1372 19.4898 76.0267 19.4898C75.9162 19.4898 75.8072 19.4649 75.7076 19.4169C75.6081 19.3689 75.5205 19.2991 75.4515 19.2126L71.4151 14.1745C71.3196 14.0548 71.1893 13.9679 71.0424 13.9258C70.8954 13.8837 70.7389 13.8884 70.5948 13.9394C70.4506 13.9904 70.3258 14.0851 70.2378 14.2104C70.1497 14.3357 70.1027 14.4853 70.1032 14.6386V23.9427C70.1032 24.1386 70.0256 24.3265 69.8874 24.465C69.7492 24.6036 69.5618 24.6814 69.3664 24.6814H66.8903C66.7934 24.6816 66.6975 24.6627 66.608 24.6257C66.5185 24.5887 66.4372 24.5343 66.3687 24.4656C66.3003 24.397 66.246 24.3154 66.2091 24.2257C66.1721 24.136 66.1533 24.0398 66.1535 23.9427V6.94208C66.1533 6.845 66.1721 6.74884 66.2091 6.6591C66.246 6.56937 66.3003 6.48784 66.3687 6.4192C66.4372 6.35055 66.5185 6.29616 66.608 6.25913C66.6975 6.2221 66.7934 6.20317 66.8903 6.20343Z" fill="#E20000"/>
<path d="M99.3839 5.80841C105.043 5.80841 109.389 10.1632 109.389 15.4424C109.389 20.7215 105.043 25.0823 99.3839 25.0823C93.7244 25.0823 89.3788 20.7255 89.3788 15.4463C89.3788 10.1672 93.7224 5.80841 99.3839 5.80841ZM99.1988 21.3792C100.008 21.4067 100.814 21.2672 101.568 20.9692C102.321 20.6713 103.005 20.2213 103.578 19.6472C104.151 19.0731 104.599 18.3871 104.897 17.6319C105.194 16.8766 105.333 16.0682 105.305 15.2567C105.215 12.2488 102.567 9.59445 99.5671 9.50558C98.7578 9.47805 97.9514 9.61758 97.1981 9.91552C96.4448 10.2135 95.7606 10.6634 95.1879 11.2375C94.6153 11.8117 94.1665 12.4976 93.8693 13.2529C93.5721 14.0082 93.4329 14.8166 93.4604 15.628C93.551 18.634 96.1986 21.2903 99.1988 21.3792Z" fill="#E20000"/>
<path d="M113.603 6.20339H116.079C116.274 6.20339 116.462 6.28122 116.6 6.41974C116.738 6.55826 116.816 6.74614 116.816 6.94204V15.8788C116.816 16.0339 116.864 16.185 116.954 16.3109C117.045 16.4367 117.172 16.5309 117.319 16.58C117.465 16.6292 117.624 16.6308 117.771 16.5847C117.919 16.5386 118.049 16.4472 118.141 16.3232L125.546 6.49767C125.615 6.40593 125.705 6.33157 125.807 6.28049C125.91 6.22941 126.023 6.20301 126.137 6.20339H128.588C128.783 6.20339 128.971 6.28122 129.109 6.41974C129.247 6.55826 129.325 6.74614 129.325 6.94204V23.9427C129.325 24.1386 129.247 24.3265 129.109 24.465C128.971 24.6035 128.783 24.6813 128.588 24.6813H126.11C126.013 24.6816 125.917 24.6627 125.827 24.6256C125.738 24.5886 125.657 24.5342 125.588 24.4656C125.52 24.3969 125.465 24.3154 125.429 24.2257C125.392 24.1359 125.373 24.0398 125.373 23.9427V15.0098C125.373 14.8548 125.325 14.7037 125.234 14.5778C125.144 14.452 125.016 14.3578 124.87 14.3087C124.723 14.2595 124.565 14.2579 124.417 14.3039C124.27 14.35 124.14 14.4415 124.047 14.5655L116.642 24.391C116.573 24.4826 116.484 24.5569 116.381 24.608C116.279 24.6591 116.166 24.6855 116.051 24.6853H113.603C113.407 24.6853 113.22 24.6075 113.082 24.4689C112.944 24.3304 112.866 24.1425 112.866 23.9466V6.94204C112.866 6.74614 112.944 6.55826 113.082 6.41974C113.22 6.28122 113.407 6.20339 113.603 6.20339ZM118.821 -2.95998e-05C118.979 0.0004413 119.134 0.0519511 119.26 0.146899C119.387 0.241847 119.481 0.375204 119.526 0.527291C119.638 0.836716 119.842 1.1041 120.111 1.29307C120.38 1.48203 120.7 1.58341 121.028 1.58341C121.357 1.58341 121.677 1.48203 121.946 1.29307C122.214 1.1041 122.419 0.836716 122.53 0.527291C122.576 0.375525 122.669 0.242402 122.795 0.147485C122.922 0.0525679 123.076 0.000863461 123.234 -2.95998e-05H124.433C124.542 -0.000206877 124.649 0.023661 124.747 0.0698675C124.846 0.116074 124.932 0.183477 125.002 0.267259C125.071 0.35104 125.121 0.449129 125.148 0.554512C125.175 0.659895 125.179 0.769969 125.158 0.876863C124.79 2.78667 123.21 4.09214 121.021 4.09214C118.833 4.09214 117.261 2.78667 116.885 0.876863C116.864 0.768812 116.868 0.657522 116.896 0.551119C116.923 0.444717 116.975 0.345889 117.045 0.261852C117.116 0.177816 117.205 0.110693 117.305 0.0653849C117.405 0.0200769 117.514 -0.00227194 117.623 -2.95998e-05H118.821Z" fill="#E20000"/>
<path d="M65.3143 48.5431C65.4184 48.5436 65.5213 48.5217 65.6162 48.4787C65.711 48.4358 65.7955 48.3729 65.8639 48.2943C66.5534 47.5043 68.5273 44.7926 68.5273 39.5412V34.499C68.527 34.4019 68.5459 34.3058 68.5828 34.216C68.6197 34.1263 68.674 34.0448 68.7425 33.9761C68.8109 33.9075 68.8923 33.8531 68.9818 33.8161C69.0713 33.779 69.1672 33.7601 69.264 33.7604H80.5693C80.6661 33.7601 80.7621 33.779 80.8516 33.8161C80.9411 33.8531 81.0224 33.9075 81.0909 33.9761C81.1593 34.0448 81.2136 34.1263 81.2505 34.216C81.2874 34.3058 81.3063 34.4019 81.3061 34.499V47.7946C81.3061 47.9907 81.3836 48.1788 81.5217 48.3176C81.6598 48.4564 81.8472 48.5347 82.0428 48.5352H82.8071C82.904 48.535 82.9999 48.5539 83.0894 48.5909C83.1789 48.628 83.2602 48.6824 83.3287 48.751C83.3971 48.8196 83.4514 48.9012 83.4883 48.9909C83.5253 49.0806 83.5441 49.1768 83.5439 49.2739V55.187C83.5441 55.284 83.5253 55.3802 83.4883 55.4699C83.4514 55.5597 83.3971 55.6412 83.3287 55.7099C83.2602 55.7785 83.1789 55.8329 83.0894 55.8699C82.9999 55.9069 82.904 55.9259 82.8071 55.9256H80.3231C80.2263 55.9259 80.1303 55.9069 80.0408 55.8699C79.9513 55.8329 79.87 55.7785 79.8015 55.7099C79.7331 55.6412 79.6788 55.5597 79.6419 55.4699C79.6049 55.3802 79.5861 55.284 79.5863 55.187V52.977C79.5863 52.8798 79.5672 52.7836 79.5301 52.6938C79.4929 52.6041 79.4385 52.5226 79.3698 52.454C79.3012 52.3854 79.2198 52.331 79.1302 52.294C79.0405 52.257 78.9445 52.2381 78.8476 52.2383H69.264C69.1672 52.2381 69.0713 52.257 68.9818 52.294C68.8923 52.331 68.8109 52.3854 68.7425 52.4541C68.674 52.5227 68.6197 52.6043 68.5828 52.694C68.5459 52.7837 68.527 52.8799 68.5273 52.977V55.1949C68.5273 55.3908 68.4496 55.5787 68.3115 55.7172C68.1733 55.8557 67.9859 55.9335 67.7905 55.9335H65.3143C65.2175 55.9338 65.1216 55.9149 65.0321 55.8778C64.9426 55.8408 64.8613 55.7864 64.7928 55.7178C64.7243 55.6491 64.6701 55.5676 64.6331 55.4778C64.5962 55.3881 64.5773 55.2919 64.5776 55.1949V49.2818C64.5773 49.1847 64.5962 49.0885 64.6331 48.9988C64.6701 48.9091 64.7243 48.8275 64.7928 48.7589C64.8613 48.6903 64.9426 48.6359 65.0321 48.5988C65.1216 48.5618 65.2175 48.5429 65.3143 48.5431ZM77.3465 47.7946V38.1942C77.3465 38.0972 77.3275 38.0012 77.2905 37.9116C77.2534 37.8219 77.1992 37.7405 77.1308 37.6719C77.0623 37.6033 76.9811 37.5489 76.8917 37.5118C76.8024 37.4747 76.7065 37.4556 76.6098 37.4556H73.2137C73.0183 37.4556 72.8309 37.5334 72.6927 37.6719C72.5545 37.8104 72.4769 37.9983 72.4769 38.1942V39.5767C72.4769 43.5918 71.4191 46.1218 70.6449 47.4371C70.5784 47.5493 70.5428 47.6772 70.5416 47.8077C70.5405 47.9382 70.5738 48.0667 70.6382 48.1801C70.7027 48.2935 70.796 48.3877 70.9086 48.4532C71.0212 48.5187 71.149 48.5532 71.2792 48.553H76.6098C76.7082 48.553 76.8057 48.5333 76.8964 48.4949C76.9871 48.4566 77.0692 48.4004 77.1378 48.3297C77.2065 48.259 77.2604 48.1753 77.2962 48.0833C77.3321 47.9914 77.3492 47.8933 77.3465 47.7946Z" fill="#00CCFF"/>
<path d="M95.2215 33.3634C100.881 33.3634 105.227 37.7202 105.227 42.9994C105.227 48.2785 100.881 52.6333 95.2215 52.6333C89.562 52.6333 85.2163 48.2785 85.2163 42.9994C85.2163 37.7202 89.56 33.3634 95.2215 33.3634ZM95.0363 48.9362C95.8457 48.9637 96.652 48.8242 97.4054 48.5262C98.1587 48.2283 98.8429 47.7783 99.4155 47.2042C99.9882 46.6301 100.437 45.9441 100.734 45.1888C101.031 44.4336 101.171 43.6251 101.143 42.8137C101.052 39.8058 98.4049 37.1514 95.4047 37.0626C94.5954 37.035 93.789 37.1746 93.0357 37.4725C92.2823 37.7704 91.5981 38.2204 91.0255 38.7945C90.4529 39.3686 90.0041 40.0546 89.7069 40.8099C89.4097 41.5651 89.2705 42.3736 89.298 43.185C89.3886 46.1909 92.0362 48.8453 95.0363 48.9362Z" fill="#00CCFF"/>
<path d="M109.44 33.7604H111.916C112.112 33.7604 112.299 33.8382 112.437 33.9767C112.576 34.1152 112.653 34.3031 112.653 34.499V39.7525C112.653 39.902 112.698 40.0481 112.782 40.1715C112.866 40.2949 112.986 40.3897 113.125 40.4434C113.265 40.4971 113.417 40.5072 113.562 40.4724C113.707 40.4375 113.838 40.3593 113.938 40.2482L119.542 34.0053C119.611 33.9282 119.696 33.8666 119.79 33.8244C119.884 33.7822 119.986 33.7604 120.09 33.7604H122.848C122.99 33.7604 123.129 33.8018 123.249 33.8796C123.368 33.9573 123.462 34.0681 123.52 34.1984C123.578 34.3288 123.597 34.4732 123.575 34.6141C123.553 34.7551 123.49 34.8866 123.395 34.9928L118.037 40.9829C117.927 41.1063 117.862 41.2629 117.851 41.4279C117.84 41.5929 117.885 41.7568 117.978 41.8934L124.236 51.0829C124.312 51.194 124.356 51.3236 124.364 51.4578C124.371 51.592 124.342 51.7258 124.279 51.8447C124.217 51.9635 124.123 52.063 124.008 52.1324C123.893 52.2018 123.762 52.2384 123.628 52.2383H120.809C120.689 52.2384 120.571 52.2091 120.465 52.153C120.36 52.0969 120.269 52.0156 120.202 51.9164L115.539 45.0751C115.477 44.9841 115.395 44.9083 115.3 44.8531C115.205 44.7979 115.098 44.7647 114.989 44.756C114.879 44.7473 114.769 44.7633 114.666 44.8027C114.563 44.8422 114.47 44.9042 114.395 44.9842L112.856 46.6096C112.728 46.7473 112.658 46.9289 112.659 47.1172V51.4957C112.659 51.6915 112.581 51.879 112.443 52.0174C112.305 52.1559 112.118 52.2338 111.922 52.2344H109.44C109.245 52.2338 109.058 52.1559 108.92 52.0174C108.782 51.879 108.704 51.6915 108.704 51.4957V34.499C108.704 34.3031 108.781 34.1152 108.919 33.9767C109.058 33.8382 109.245 33.7604 109.44 33.7604Z" fill="#00CCFF"/>
<path d="M132.528 37.4556H128.736C128.54 37.455 128.353 37.3771 128.215 37.2387C128.077 37.1002 127.999 36.9127 127.999 36.7169V34.499C127.999 34.3031 128.076 34.1152 128.215 33.9767C128.353 33.8382 128.54 33.7604 128.736 33.7604H141.737C141.834 33.7601 141.93 33.779 142.019 33.8161C142.109 33.8531 142.19 33.9075 142.259 33.9761C142.327 34.0448 142.381 34.1263 142.418 34.216C142.455 34.3058 142.474 34.4019 142.474 34.499V36.7169C142.474 36.8139 142.455 36.91 142.418 36.9996C142.381 37.0892 142.326 37.1706 142.258 37.2392C142.19 37.3078 142.108 37.3622 142.019 37.3993C141.93 37.4365 141.834 37.4556 141.737 37.4556H137.951C137.756 37.4561 137.568 37.5341 137.43 37.6725C137.292 37.8109 137.215 37.9985 137.214 38.1942V51.4997C137.214 51.6956 137.136 51.8835 136.998 52.022C136.86 52.1605 136.673 52.2383 136.477 52.2383H134.001C133.806 52.2378 133.619 52.1598 133.481 52.0214C133.343 51.883 133.265 51.6954 133.264 51.4997V38.1942C133.264 37.9983 133.187 37.8104 133.049 37.6719C132.91 37.5334 132.723 37.4556 132.528 37.4556Z" fill="#00CCFF"/>
<path d="M154.167 33.3634C159.829 33.3634 164.172 37.7202 164.172 42.9994C164.172 48.2785 159.838 52.6333 154.167 52.6333C148.496 52.6333 144.162 48.2785 144.162 42.9994C144.162 37.7202 148.508 33.3634 154.167 33.3634ZM153.984 48.9362C154.793 48.9637 155.6 48.8242 156.353 48.5262C157.106 48.2283 157.79 47.7783 158.363 47.2042C158.936 46.6301 159.385 45.9441 159.682 45.1888C159.979 44.4336 160.118 43.6251 160.091 42.8137C160.002 39.8078 157.354 37.1514 154.354 37.0626C153.545 37.035 152.739 37.1746 151.985 37.4725C151.232 37.7704 150.548 38.2204 149.975 38.7945C149.402 39.3686 148.954 40.0546 148.656 40.8099C148.359 41.5651 148.22 42.3736 148.248 43.185C148.334 46.1909 150.984 48.8453 153.984 48.9362Z" fill="#00CCFF"/>
<path d="M167.651 34.499C167.651 34.4019 167.67 34.3058 167.707 34.216C167.744 34.1263 167.798 34.0448 167.866 33.9761C167.935 33.9075 168.016 33.8531 168.106 33.8161C168.195 33.779 168.291 33.7601 168.388 33.7604H175.417C179.356 33.7604 182 36.399 182 39.9638C182 43.5286 179.366 46.1672 175.417 46.1672H172.338C172.241 46.167 172.145 46.1859 172.055 46.2229C171.965 46.2599 171.884 46.3143 171.815 46.3829C171.747 46.4515 171.692 46.533 171.655 46.6227C171.618 46.7125 171.599 46.8087 171.599 46.9059V51.4997C171.599 51.6956 171.521 51.8835 171.383 52.022C171.245 52.1605 171.058 52.2383 170.862 52.2383H168.388C168.193 52.2383 168.005 52.1605 167.867 52.022C167.729 51.8835 167.651 51.6956 167.651 51.4997V34.499ZM175.287 42.4622C176.862 42.4622 177.918 41.4075 177.918 39.9559C177.918 38.5043 176.866 37.4477 175.287 37.4477H172.332C172.136 37.4477 171.948 37.5254 171.81 37.6639C171.672 37.8024 171.593 37.9902 171.593 38.1863V41.7314C171.593 41.8286 171.612 41.9248 171.649 42.0145C171.686 42.1043 171.741 42.1858 171.809 42.2544C171.878 42.323 171.96 42.3774 172.049 42.4144C172.139 42.4514 172.235 42.4703 172.332 42.4701L175.287 42.4622Z" fill="#00CCFF"/>
<path d="M23.6842 21.1323C27.3167 21.1323 29.0995 25.5346 26.5209 28.0981L26.4263 28.1929C24.713 29.9087 23.2032 31.8174 21.9271 33.8808C20.6491 35.9316 18.8706 37.6218 16.7597 38.7916C14.6488 39.9614 12.2752 40.5721 9.86334 40.5662C4.4973 40.5642 -0.0354577 36.162 6.45246e-07 30.7821C0.0176817 28.217 1.04633 25.763 2.86158 23.9553C4.67684 22.1475 7.13142 21.1328 9.68999 21.1323H23.6842Z" fill="#E20000"/>
<path d="M58.1537 30.8473C58.1537 33.4244 57.1326 35.8959 55.315 37.7182C53.4974 39.5404 51.0322 40.5642 48.4618 40.5642C45.8918 40.5642 43.4271 41.5877 41.6099 43.4096C39.7927 45.2315 38.7718 47.7026 38.7718 50.2791C38.7718 52.8562 37.7507 55.3277 35.9331 57.15C34.1155 58.9723 31.6503 59.996 29.0798 59.996C26.5093 59.996 24.0442 58.9723 22.2266 57.15C20.409 55.3277 19.3879 52.8562 19.3879 50.2791C19.3889 42.5492 22.4522 35.1362 27.904 29.6704C33.3558 24.2045 40.7498 21.1334 48.4598 21.1323C49.7326 21.1321 50.9929 21.3831 52.1689 21.8712C53.3449 22.3593 54.4135 23.0748 55.3136 23.9769C56.2138 24.8791 56.9279 25.9501 57.4152 27.1289C57.9025 28.3077 58.1535 29.5712 58.1537 30.8473Z" fill="#00CCFF"/>
<path d="M29.0759 20.133C34.4286 20.133 38.7678 15.7826 38.7678 10.4161C38.7678 5.04957 34.4286 0.699158 29.0759 0.699158C23.7232 0.699158 19.3839 5.04957 19.3839 10.4161C19.3839 15.7826 23.7232 20.133 29.0759 20.133Z" fill="#E20000"/>
</g>
<defs>
<clipPath id="clip0_3089_12226">
<rect width="182" height="60" fill="white"/>
</clipPath>
</defs>
</svg>
