<svg display="none" xmlns="http://www.w3.org/2000/svg" viewBox="0 0 172 172">
    <symbol id="copy" viewBox="0 0 172 172">
        <path d="M0,172v-172h172v172z" fill="none"></path>
        <g>
            <path d="M28.66667,14.33333c-7.91917,0 -14.33333,6.41417 -14.33333,14.33333v93.16667c0,3.956 3.21067,7.16667 7.16667,7.16667c3.956,0 7.16667,-3.21067 7.16667,-7.16667v-93.16667h93.16667c3.956,0 7.16667,-3.21067 7.16667,-7.16667c0,-3.956 -3.21067,-7.16667 -7.16667,-7.16667zM57.33333,43c-7.91917,0 -14.33333,6.41417 -14.33333,14.33333v86c0,7.91917 6.41417,14.33333 14.33333,14.33333h86c7.91917,0 14.33333,-6.41417 14.33333,-14.33333v-86c0,-7.91917 -6.41417,-14.33333 -14.33333,-14.33333zM57.33333,57.33333h86v86h-86z"></path>
        </g>
    </symbol>
    <symbol id="print" viewBox="0 0 172 172">
        <path d="M0,172v-172h172v172z" fill="none"></path>
        <g>
            <path d="M43,21.5v28.66667h-7.16667c-11.825,0 -21.5,9.675 -21.5,21.5v50.16667h28.66667v28.66667h86v-28.66667h28.66667v-50.16667c0,-11.825 -9.675,-21.5 -21.5,-21.5h-7.16667v-28.66667zM57.33333,35.83333h57.33333v14.33333h-57.33333zM35.83333,64.5h100.33333c3.956,0 7.16667,3.21067 7.16667,7.16667v35.83333h-14.33333v-14.33333h-86v14.33333h-14.33333v-35.83333c0,-3.956 3.21067,-7.16667 7.16667,-7.16667zM129,71.66667c-3.95804,0 -7.16667,3.20863 -7.16667,7.16667c0,3.95804 3.20863,7.16667 7.16667,7.16667c3.95804,0 7.16667,-3.20863 7.16667,-7.16667c0,-3.95804 -3.20863,-7.16667 -7.16667,-7.16667zM57.33333,107.5h57.33333v28.66667h-57.33333z"></path>
        </g>
    </symbol>
    <symbol id="reload" viewBox="0 0 172 172">
        <path d="M0,172v-172h172v172z" fill="none"></path>
        <g>
            <path d="M64.5,21.5c-3.956,0 -7.16667,3.21067 -7.16667,7.16667c0,3.956 3.21067,7.16667 7.16667,7.16667h64.5c3.956,0 7.16667,3.21067 7.16667,7.16667v64.5h-14.33333c-2.89533,0 -5.50993,1.74285 -6.62077,4.42318c-0.3655,0.88866 -0.5459,1.81899 -0.5459,2.74349c0,1.86333 0.73078,3.69822 2.09961,5.06706l21.5,21.5c2.80217,2.80217 7.33911,2.80217 10.13411,0l21.5,-21.5c2.04967,-2.04967 2.65738,-5.12304 1.55371,-7.81054c-1.11083,-2.68034 -3.72543,-4.42318 -6.62077,-4.42318h-14.33333v-64.5c0,-11.87517 -9.62483,-21.5 -21.5,-21.5zM28.66667,28.66667c-1.83377,0 -3.66956,0.69853 -5.06706,2.09961l-21.5,21.5c-2.04967,2.04967 -2.65738,5.12305 -1.55371,7.81055c1.11083,2.68033 3.72543,4.42318 6.62077,4.42318h14.33333v64.5c0,11.87517 9.62483,21.5 21.5,21.5h64.5c3.956,0 7.16667,-3.21067 7.16667,-7.16667c0,-3.956 -3.21067,-7.16667 -7.16667,-7.16667h-64.5c-3.956,0 -7.16667,-3.21067 -7.16667,-7.16667v-64.5h14.33333c2.89533,0 5.50993,-1.74284 6.62077,-4.42318c0.3655,-0.88867 0.5459,-1.81899 0.5459,-2.74349c0,-1.86333 -0.73078,-3.69822 -2.09961,-5.06706l-21.5,-21.5c-1.40108,-1.40108 -3.23329,-2.09961 -5.06706,-2.09961z"></path>
        </g>
    </symbol>
    <symbol id="add" viewBox="0 0 172 172">
        <path d="M0,172v-172h172v172z" fill="none"></path>
        <g>
            <path d="M86,14.33333c-39.517,0 -71.66667,32.14967 -71.66667,71.66667c0,39.517 32.14967,71.66667 71.66667,71.66667c39.517,0 71.66667,-32.14967 71.66667,-71.66667c0,-39.517 -32.14967,-71.66667 -71.66667,-71.66667zM86,28.66667c31.61217,0 57.33333,25.72117 57.33333,57.33333c0,31.61217 -25.72117,57.33333 -57.33333,57.33333c-31.61217,0 -57.33333,-25.72117 -57.33333,-57.33333c0,-31.61217 25.72117,-57.33333 57.33333,-57.33333zM78.83333,57.33333v21.5h-21.5v14.33333h21.5v21.5h14.33333v-21.5h21.5v-14.33333h-21.5v-21.5z"></path>
        </g>
    </symbol>
    <symbol id="warn" viewBox="0 0 172 172">
        <path d="M0,172v-172h172v172z" fill="none"></path>
        <g>
            <path d="M1.47633,152.01217c2.021,3.54033 5.69033,5.6545 9.79683,5.6545h142.287c4.1065,0 7.77583,-2.11417 9.804,-5.6545c1.99233,-3.483 1.96367,-7.6325 -0.07167,-11.094l-71.1435,-121.05217c-2.03533,-3.4615 -5.676,-5.53267 -9.73233,-5.53267c-4.05633,0 -7.68983,2.07117 -9.72517,5.53983l-71.15067,121.045c-2.03533,3.4615 -2.05683,7.611 -0.0645,11.094zM7.71133,144.5445l71.15783,-121.045c1.0535,-1.806 2.83083,-1.9995 3.5475,-1.9995c0.71667,0 2.494,0.1935 3.56183,1.9995l71.1435,121.045c1.032,1.75583 0.35833,3.31817 0.0215,3.913c-0.73817,1.28283 -2.07117,2.0425 -3.58333,2.0425h-142.287c-1.505,0 -2.84517,-0.75967 -3.58333,-2.04967c-0.33683,-0.58767 -1.00333,-2.15 0.0215,-3.90583z"></path><path d="M82.41667,114.66667c1.978,0 3.58333,-1.60533 3.58333,-3.58333v-57.33333c0,-1.978 -1.60533,-3.58333 -3.58333,-3.58333c-1.978,0 -3.58333,1.60533 -3.58333,3.58333v57.33333c0,1.978 1.60533,3.58333 3.58333,3.58333z"></path><path d="M82.41667,136.16667c1.978,0 3.58333,-1.60533 3.58333,-3.58333v-7.16667c0,-1.978 -1.60533,-3.58333 -3.58333,-3.58333c-1.978,0 -3.58333,1.60533 -3.58333,3.58333v7.16667c0,1.978 1.60533,3.58333 3.58333,3.58333z"></path>
        </g>
    </symbol>
    <symbol id="success" viewBox="0 0 172 172">
        <path d="M0,172v-172h172v172z" fill="none"></path>
        <g>
            <path d="M69.8855,120.93225c-1.37524,0 -2.75049,-0.5249 -3.80029,-1.57471l-26.8855,-26.8855c-2.09961,-2.09961 -2.09961,-5.50098 0,-7.60059c2.09961,-2.09961 5.50098,-2.09961 7.60059,0l23.08521,23.08521l55.31421,-55.31421c2.09961,-2.09961 5.50098,-2.09961 7.60059,0c2.09961,2.09961 2.09961,5.50098 0,7.60059l-59.1145,59.1145c-1.0498,1.0498 -2.42505,1.57471 -3.80029,1.57471z"></path><path d="M86,172c-47.49649,0 -86,-38.50351 -86,-86v0c0,-47.49649 38.50351,-86 86,-86v0c47.49649,0 86,38.50351 86,86v0c0,47.49649 -38.50351,86 -86,86z" fill="none"></path><path d="M86,168.56c-45.59663,0 -82.56,-36.96337 -82.56,-82.56v0c0,-45.59663 36.96337,-82.56 82.56,-82.56v0c45.59663,0 82.56,36.96337 82.56,82.56v0c0,45.59663 -36.96337,82.56 -82.56,82.56z" fill="none"></path><path d="M86,172c-47.49649,0 -86,-38.50351 -86,-86v0c0,-47.49649 38.50351,-86 86,-86v0c47.49649,0 86,38.50351 86,86v0c0,47.49649 -38.50351,86 -86,86z" fill="none"></path><path d="M86,165.12c-43.69677,0 -79.12,-35.42323 -79.12,-79.12v0c0,-43.69677 35.42323,-79.12 79.12,-79.12v0c43.69677,0 79.12,35.42323 79.12,79.12v0c0,43.69677 -35.42323,79.12 -79.12,79.12z" fill="none"></path>
        </g>
    </symbol>
    <symbol id="eye" viewBox="0 0 172 172">
        <path d="M0,172v-172h172v172z" fill="none"></path>
        <g>
            <path d="M86,28.66667c-51.13157,0 -84.15967,52.81077 -84.75703,53.77239c-0.80406,1.01283 -1.2421,2.26775 -1.24297,3.56094c0.00102,1.1094 0.32388,2.19467 0.92943,3.12422c0.00743,0.01122 0.01489,0.02242 0.0224,0.03359c0.09858,0.20342 27.82281,54.17552 85.04818,54.17552c56.98258,0 84.666,-53.44188 85.00339,-54.09714c0.02282,-0.03707 0.04522,-0.0744 0.06719,-0.11198c0.60555,-0.92955 0.92841,-2.01482 0.92942,-3.12422c-0.0002,-1.28802 -0.43411,-2.53845 -1.23177,-3.54974c-0.00373,-0.00374 -0.00746,-0.00747 -0.0112,-0.0112c-0.59736,-0.96163 -33.62546,-53.77239 -84.75703,-53.77239zM86,45.86667c22.16507,0 40.13333,17.96827 40.13333,40.13333c0,22.16507 -17.96827,40.13333 -40.13333,40.13333c-22.16507,0 -40.13333,-17.96827 -40.13333,-40.13333c0,-22.16507 17.96827,-40.13333 40.13333,-40.13333zM86,68.8c-9.4993,0 -17.2,7.7007 -17.2,17.2c0,9.4993 7.7007,17.2 17.2,17.2c9.4993,0 17.2,-7.7007 17.2,-17.2c0,-9.4993 -7.7007,-17.2 -17.2,-17.2z"></path>
        </g>
    </symbol>
    <symbol id="cross" viewBox="0 0 40 40">
        <path d="M0,172v-172h172v172z" fill="none"></path>
        <g>
            <path d="M10 10L20 20M20 20L30 30M20 20L30 10M20 20L10 30" stroke="#0F0F0F" stroke-width="2" stroke-linecap="round" stroke-linejoin="round"/>
        </g>
    </symbol>
    <symbol id="bell" viewBox="0 0 40 40">
        <path d="M0,172v-172h172v172z" fill="none"></path>
        <g>
            <path fill-rule="evenodd" clip-rule="evenodd" d="M20.0001 5.9001C14.5967 5.9001 10.2057 10.3128 10.2057 15.7693V22.672C10.2057 24.0009 9.30236 25.1598 8.01363 25.4842L7.98155 25.4923C7.49273 25.6154 7.1501 26.0549 7.1501 26.559V27.6155C7.1501 28.223 7.64258 28.7155 8.2501 28.7155H31.7501C32.3576 28.7155 32.8501 28.223 32.8501 27.6155V26.559C32.8501 26.0549 32.5075 25.6153 32.0186 25.4923L31.9866 25.4842C30.6978 25.1598 29.7945 24.0009 29.7945 22.672V15.7693C29.7945 10.3128 25.4035 5.9001 20.0001 5.9001ZM8.40565 15.7693C8.40565 9.33051 13.5908 4.1001 20.0001 4.1001C26.4094 4.1001 31.5945 9.33051 31.5945 15.7693V22.672C31.5945 23.176 31.9372 23.6156 32.426 23.7387L32.4581 23.7468C33.7468 24.0712 34.6501 25.2301 34.6501 26.559V27.6155C34.6501 29.2171 33.3517 30.5155 31.7501 30.5155H8.2501C6.64847 30.5155 5.3501 29.2171 5.3501 27.6155V26.559C5.3501 25.2301 6.25339 24.0712 7.54212 23.7468L7.5742 23.7387C8.06302 23.6156 8.40565 23.176 8.40565 22.672V15.7693Z"/>
            <path fill-rule="evenodd" clip-rule="evenodd" d="M14.1641 28.7156H25.8362L26.0362 29.3417C26.1738 29.7722 26.2474 30.2253 26.2474 30.6925C26.2474 33.7405 23.259 35.9002 20.0002 35.9002C16.7413 35.9002 13.7529 33.7405 13.7529 30.6925C13.7529 30.2253 13.8265 29.7722 13.9641 29.3417L14.1641 28.7156ZM15.5589 30.5156C15.5549 30.5742 15.5529 30.6331 15.5529 30.6925C15.5529 32.4026 17.3526 34.1002 20.0002 34.1002C22.6477 34.1002 24.4474 32.4026 24.4474 30.6925C24.4474 30.6331 24.4454 30.5742 24.4414 30.5156H15.5589Z"/>
        </g>
    </symbol>
    <symbol id="search" viewBox="0 0 20 20">
        <path d="M0,172v-172h172v172z" fill="none"></path>
        <g>
            <path d="M14.6775 12.9299C15.8879 11.2782 16.43 9.23049 16.1954 7.19632C15.9608 5.16214 14.9668 3.29155 13.4122 1.95879C11.8576 0.626033 9.85718 -0.0706141 7.81104 0.00822737C5.7649 0.0870688 3.82397 0.935584 2.37658 2.38402C0.929183 3.83245 0.0820563 5.77398 0.00467902 7.82017C-0.0726983 9.86637 0.62538 11.8663 1.95925 13.4199C3.29313 14.9735 5.16442 15.9662 7.19877 16.1994C9.23311 16.4325 11.2805 15.8889 12.9312 14.6774H12.93C12.9675 14.7274 13.0075 14.7749 13.0525 14.8211L17.865 19.6336C18.0994 19.8682 18.4173 20 18.7489 20.0001C19.0805 20.0003 19.3986 19.8686 19.6331 19.6343C19.8677 19.3999 19.9995 19.0819 19.9996 18.7503C19.9997 18.4187 19.8681 18.1007 19.6337 17.8661L14.8212 13.0536C14.7766 13.0084 14.7285 12.9666 14.6775 12.9286V12.9299ZM15 8.12488C15 9.02772 14.8222 9.92172 14.4767 10.7558C14.1312 11.5899 13.6248 12.3478 12.9864 12.9862C12.3479 13.6246 11.5901 14.1311 10.7559 14.4766C9.92183 14.8221 9.02783 14.9999 8.12499 14.9999C7.22216 14.9999 6.32816 14.8221 5.49404 14.4766C4.65993 14.1311 3.90204 13.6246 3.26363 12.9862C2.62523 12.3478 2.11882 11.5899 1.77332 10.7558C1.42782 9.92172 1.24999 9.02772 1.24999 8.12488C1.24999 6.30152 1.97432 4.55283 3.26363 3.26352C4.55295 1.97421 6.30163 1.24988 8.12499 1.24988C9.94836 1.24988 11.697 1.97421 12.9864 3.26352C14.2757 4.55283 15 6.30152 15 8.12488Z"/>
        </g>
    </symbol>
    <symbol id="doctor" viewBox="0 0 40 40">
        <path d="M0,172v-172h172v172z" fill="none"></path>
        <g>
            <path d="M34.7492 28.3118C34.3588 26.9711 33.5442 25.8124 32.4415 25.0295C31.4227 24.3638 30.361 23.7741 29.2642 23.2648C28.0936 22.6471 26.8896 22.0824 25.6856 21.5L25.5017 21.3942C23.783 22.195 21.9288 22.6212 20.0502 22.6471C18.1742 22.6458 16.3186 22.2374 14.5987 21.4471L12.592 22.453C11.1037 23.1765 9.58194 23.8471 8.14381 24.6765C7.30631 25.11 6.582 25.7531 6.03403 26.5498C5.48606 27.3464 5.13107 28.2725 5 29.2471L5 29.5118V35H35V29.5118C34.9164 29.1059 34.8662 28.7 34.7492 28.3118ZM22.2074 23.7765L20.0502 27.4295C19.3144 26.2118 18.612 25.0295 17.8428 23.7765C19.263 24.2502 20.7871 24.2502 22.2074 23.7765ZM10.1338 32.9706C10.1338 32.9706 10.1338 32.9706 10.1338 33.0942H6.7893C6.781 32.9885 6.781 32.8822 6.7893 32.7765C6.7893 31.9118 6.7893 31.0118 6.7893 30.1824C6.74515 29.3445 6.94394 28.5124 7.35919 27.7967C7.77445 27.0811 8.38646 26.5159 9.11371 26.1765L11.5217 24.9765L11.9565 24.7295C11.9565 24.7295 11.9565 24.8883 11.9565 24.9589C11.9565 26.1765 11.9565 27.3942 11.9565 28.6118C11.9515 28.6694 11.9337 28.7249 11.9047 28.7739C11.8756 28.8229 11.8361 28.8641 11.7893 28.8942C11.426 29.0457 11.0947 29.2717 10.8145 29.5591C10.5343 29.8465 10.3109 30.1895 10.157 30.5685C10.0031 30.9475 9.92177 31.3548 9.91779 31.7671C9.91381 32.1794 9.98722 32.5884 10.1338 32.9706ZM12.8763 33.0942C12.5658 33.0942 12.2681 32.964 12.0485 32.7324C11.829 32.5007 11.7057 32.1865 11.7057 31.8589C11.7057 31.5312 11.829 31.217 12.0485 30.9854C12.2681 30.7537 12.5658 30.6236 12.8763 30.6236C13.1867 30.6236 13.4844 30.7537 13.704 30.9854C13.9235 31.217 14.0468 31.5312 14.0468 31.8589C14.0468 32.1865 13.9235 32.5007 13.704 32.7324C13.4844 32.964 13.1867 33.0942 12.8763 33.0942ZM23.6789 31.0295C23.6789 31.7 23.6789 32.3883 23.6789 33.0765H15.6187C15.6187 32.7059 15.7692 32.3353 15.786 31.9648C15.815 31.3382 15.6582 30.7177 15.3375 30.1895C15.0169 29.6613 14.5482 29.2517 13.9967 29.0177C13.9156 28.9931 13.8457 28.9385 13.7997 28.864C13.7536 28.7895 13.7345 28.7 13.7458 28.6118V24.1648C13.7323 24.0856 13.7449 24.004 13.7814 23.9334C13.8179 23.8628 13.8761 23.8074 13.9465 23.7765C14.398 23.5824 14.8328 23.353 15.2843 23.1412L20.0502 30.8177L24.7659 23.1236L26.087 23.7942C26.087 23.7942 26.1873 23.9353 26.1873 24.0059V27.4118C26.1926 27.4767 26.1751 27.5413 26.1381 27.5934C26.101 27.6455 26.0471 27.6814 25.9866 27.6942C25.3014 27.893 24.7002 28.331 24.2811 28.9367C23.862 29.5424 23.6497 30.2801 23.6789 31.0295ZM28.612 33.0765H25.4515V30.6412C25.459 30.5226 25.4934 30.4076 25.5518 30.3059C25.708 29.9546 25.9758 29.6722 26.3088 29.5078C26.6419 29.3433 27.019 29.3073 27.3746 29.4059C27.706 29.4592 28.0093 29.6329 28.2322 29.8972C28.4551 30.1614 28.5835 30.4995 28.5953 30.853C28.5953 31.4883 28.5953 32.1236 28.5953 32.7589L28.612 33.0765ZM33.2441 33.0765H30.3679V31.1706C30.3602 30.833 30.3266 30.4966 30.2676 30.1648C30.1526 29.5906 29.8931 29.0598 29.5165 28.6281C29.1398 28.1965 28.6598 27.8799 28.1271 27.7118C28.0532 27.6948 27.9881 27.649 27.9447 27.5836C27.9013 27.5182 27.8828 27.438 27.893 27.3589C27.893 26.4942 27.893 25.5942 27.893 24.7295L28.9465 25.2942C29.6488 25.6295 30.3512 25.9471 31.0368 26.3353C31.6967 26.668 32.2542 27.1908 32.6447 27.8434C33.0353 28.496 33.2431 29.2517 33.2441 30.0236C33.2776 31.0295 33.2441 32.053 33.2441 33.0765Z"/>
            <path d="M20.0505 20.8824C18.5622 20.8824 17.1073 20.4166 15.8698 19.544C14.6323 18.6714 13.6678 17.4312 13.0982 15.9801C12.5287 14.5291 12.3796 12.9324 12.67 11.3919C12.9603 9.8515 13.677 8.43651 14.7294 7.32592C15.7818 6.21533 17.1227 5.459 18.5824 5.15259C20.0421 4.84618 21.5552 5.00344 22.9302 5.60449C24.3052 6.20554 25.4805 7.22338 26.3074 8.5293C27.1342 9.83522 27.5756 11.3706 27.5756 12.9412C27.5711 15.0459 26.7769 17.063 25.3666 18.5513C23.9564 20.0395 22.0449 20.8777 20.0505 20.8824ZM20.0505 6.76471C18.8929 6.76471 17.7613 7.12695 16.7988 7.80563C15.8363 8.48431 15.0861 9.44894 14.6432 10.5775C14.2002 11.7061 14.0843 12.948 14.3101 14.1461C14.5359 15.3443 15.0934 16.4448 15.9119 17.3086C16.7304 18.1724 17.7733 18.7607 18.9086 18.999C20.044 19.2373 21.2208 19.115 22.2903 18.6475C23.3597 18.18 24.2738 17.3884 24.9169 16.3726C25.5601 15.3569 25.9033 14.1628 25.9033 12.9412C25.9033 11.3031 25.2867 9.73207 24.1891 8.57376C23.0914 7.41544 21.6027 6.76471 20.0505 6.76471Z"/>
        </g>
    </symbol>
    <symbol id="man" viewBox="0 0 40 40">
        <path d="M0,172v-172h172v172z" fill="none"></path>
        <g>
            <path d="M35.68 28.9119C35.265 27.4835 34.399 26.249 33.2267 25.4148C32.1436 24.7056 31.0149 24.0774 29.8489 23.5347C28.5867 22.8766 27.3067 22.275 26.0267 21.6546L25.8311 21.5417C23.9878 22.3782 22.0058 22.8192 20 22.839C18.0009 22.8277 16.0243 22.393 14.1867 21.5605L12.0533 22.6322C10.4711 23.4031 8.83556 24.1175 7.30667 25.0012C6.41842 25.4713 5.6526 26.1644 5.07616 27.0198C4.49973 27.8752 4.13024 28.867 4 29.9084V30.1904V36H36V30.1904C35.8578 29.758 35.8044 29.3255 35.68 28.9119ZM34.08 34.0071H5.88444C5.87562 33.8945 5.87562 33.7813 5.88444 33.6687C5.88444 32.7474 5.88444 31.7885 5.88444 30.9049C5.88158 30.0494 6.10312 29.2098 6.52444 28.4795C6.97876 27.7764 7.58918 27.2018 8.30222 26.8061C9.20889 26.3173 11.3067 25.1892 14.2044 23.8167C15.3024 24.1802 16.4259 24.4505 17.5644 24.6252C19.3595 24.9411 21.1916 24.9411 22.9867 24.6252C23.8797 24.4426 24.7547 24.1719 25.6 23.8167C27.6709 24.7303 29.6945 25.7596 31.6622 26.9002C32.3852 27.2805 32.9989 27.8582 33.44 28.5735C33.8306 29.2608 34.0394 30.0465 34.0444 30.8484C34.1156 31.8261 34.08 32.9166 34.08 34.0071Z"/>
            <path d="M20.0004 20.9589C18.4139 20.9626 16.862 20.4684 15.5411 19.539C14.2203 18.6095 13.1899 17.2865 12.5803 15.7374C11.9707 14.1883 11.8094 12.4828 12.1167 10.8367C12.4241 9.19063 13.1863 7.67799 14.3069 6.49023C15.4275 5.30248 16.8561 4.49302 18.4119 4.16431C19.9677 3.83561 21.5807 4.00243 23.0468 4.64366C24.5129 5.28489 25.7661 6.37171 26.6479 7.76655C27.5297 9.16139 28.0004 10.8015 28.0004 12.4794C27.9957 14.7235 27.1519 16.8746 25.6532 18.4632C24.1544 20.0518 22.1223 20.9489 20.0004 20.9589ZM20.0004 5.91773C18.7655 5.91401 17.5573 6.29788 16.5288 7.02076C15.5003 7.74363 14.6978 8.773 14.2227 9.97853C13.7477 11.1841 13.6216 12.5115 13.8604 13.7929C14.0991 15.0743 14.692 16.2519 15.564 17.1767C16.436 18.1016 17.5478 18.7319 18.7587 18.9881C19.9696 19.2443 21.2252 19.1147 22.3664 18.6158C23.5077 18.1168 24.4833 17.271 25.1697 16.1853C25.8562 15.0997 26.2226 13.823 26.2226 12.517C26.2226 10.77 25.5676 9.09432 24.4013 7.85725C23.2349 6.62018 21.6523 5.9227 20.0004 5.91773Z"/>
        </g>
    </symbol>
    <symbol id="more" viewBox="0 0 24 24">
        <path d="M0,172v-172h172v172z" fill="none"></path>
        <g>
            <path fill-rule="evenodd" clip-rule="evenodd" d="M12 2C13.1046 2 14 2.89543 14 4C14 5.10457 13.1046 6 12 6C10.8954 6 10 5.10457 10 4C10 2.89543 10.8954 2 12 2Z"/>
            <path fill-rule="evenodd" clip-rule="evenodd" d="M12 10C13.1046 10 14 10.8954 14 12C14 13.1046 13.1046 14 12 14C10.8954 14 10 13.1046 10 12C10 10.8954 10.8954 10 12 10Z"/>
            <path fill-rule="evenodd" clip-rule="evenodd" d="M12 18C13.1046 18 14 18.8954 14 20C14 21.1046 13.1046 22 12 22C10.8954 22 10 21.1046 10 20C10 18.8954 10.8954 18 12 18Z"/>
        </g>
    </symbol>
    <symbol id="delete" viewBox="0 0 24 24">
        <path d="M0,172v-172h172v172z" fill="none"></path>
        <g>
            <path fill-rule="evenodd" clip-rule="evenodd" d="M7.34998 3.5001C7.34998 1.89847 8.64835 0.600098 10.25 0.600098H13.75C15.3516 0.600098 16.65 1.89847 16.65 3.5001V4.1001H22C22.497 4.1001 22.9 4.50304 22.9 5.0001C22.9 5.49715 22.497 5.9001 22 5.9001H20.338L19.2804 20.7067C19.172 22.2243 17.9092 23.4001 16.3877 23.4001H7.61221C6.09076 23.4001 4.82798 22.2243 4.71958 20.7067L3.66197 5.9001H1.99998C1.50292 5.9001 1.09998 5.49715 1.09998 5.0001C1.09998 4.50304 1.50292 4.1001 1.99998 4.1001H7.34998V3.5001ZM9.14998 4.1001H14.85V3.5001C14.85 2.89258 14.3575 2.4001 13.75 2.4001H10.25C9.64246 2.4001 9.14998 2.89258 9.14998 3.5001V4.1001ZM5.46655 5.9001L6.51501 20.5785C6.55613 21.1541 7.03511 21.6001 7.61221 21.6001H16.3877C16.9648 21.6001 17.4438 21.1541 17.4849 20.5785L18.5334 5.9001H5.46655ZM9.45869 8.76771C9.95522 8.74491 10.3762 9.12895 10.399 9.62548L10.774 17.7921C10.7968 18.2887 10.4128 18.7097 9.91626 18.7325C9.41973 18.7553 8.99872 18.3712 8.97592 17.8747L8.60092 9.70805C8.57812 9.21151 8.96216 8.79051 9.45869 8.76771ZM14.5413 8.76771C15.0378 8.79051 15.4218 9.21151 15.399 9.70805L15.024 17.8747C15.0012 18.3712 14.5802 18.7553 14.0837 18.7325C13.5872 18.7097 13.2031 18.2887 13.2259 17.7921L13.6009 9.62548C13.6237 9.12895 14.0447 8.74491 14.5413 8.76771Z"/>
        </g>
    </symbol>
    <symbol id="edit" viewBox="0 0 24 24">
        <path d="M0,172v-172h172v172z" fill="none"></path>
        <g>
            <path fill-rule="evenodd" clip-rule="evenodd" d="M12.1818 7.27288C12.5332 6.92141 13.1031 6.92141 13.4546 7.27288L16.7273 10.5456C17.0788 10.8971 17.0788 11.4669 16.7273 11.8184L6.9091 21.6366C6.74032 21.8054 6.5114 21.9002 6.2727 21.9002H2.99998C2.50292 21.9002 2.09998 21.4972 2.09998 21.0002V17.7275C2.09998 17.4888 2.1948 17.2598 2.36358 17.0911L12.1818 7.27288ZM3.89998 18.1003V20.1002H5.89991L14.8181 11.182L12.8182 9.18207L3.89998 18.1003Z"/>
            <path fill-rule="evenodd" clip-rule="evenodd" d="M17.0909 2.3637C17.4423 2.01223 18.0122 2.01223 18.3636 2.3637L21.6364 5.63643C21.9878 5.9879 21.9878 6.55775 21.6364 6.90922L18.9091 9.63649C18.5576 9.98797 17.9878 9.98797 17.6363 9.63649L14.3636 6.36377C14.0121 6.01229 14.0121 5.44245 14.3636 5.09097L17.0909 2.3637ZM16.2728 5.72737L18.2727 7.72731L19.7272 6.27282L17.7272 4.27289L16.2728 5.72737Z"/>
        </g>
    </symbol>
    <symbol id="calendar" viewBox="0 0 24 24">
        <path d="M0,172v-172h172v172z" fill="none"></path>
        <g>
            <path fill-rule="evenodd" clip-rule="evenodd" d="M12.1818 7.27288C12.5332 6.92141 13.1031 6.92141 13.4546 7.27288L16.7273 10.5456C17.0788 10.8971 17.0788 11.4669 16.7273 11.8184L6.9091 21.6366C6.74032 21.8054 6.5114 21.9002 6.2727 21.9002H2.99998C2.50292 21.9002 2.09998 21.4972 2.09998 21.0002V17.7275C2.09998 17.4888 2.1948 17.2598 2.36358 17.0911L12.1818 7.27288ZM3.89998 18.1003V20.1002H5.89991L14.8181 11.182L12.8182 9.18207L3.89998 18.1003Z"/>
            <path fill-rule="evenodd" clip-rule="evenodd" d="M17.0909 2.3637C17.4423 2.01223 18.0122 2.01223 18.3636 2.3637L21.6364 5.63643C21.9878 5.9879 21.9878 6.55775 21.6364 6.90922L18.9091 9.63649C18.5576 9.98797 17.9878 9.98797 17.6363 9.63649L14.3636 6.36377C14.0121 6.01229 14.0121 5.44245 14.3636 5.09097L17.0909 2.3637ZM16.2728 5.72737L18.2727 7.72731L19.7272 6.27282L17.7272 4.27289L16.2728 5.72737Z"/>
        </g>
    </symbol>
    <symbol id="pharmacy" viewBox="0 0 40 40">
        <path d="M0,172v-172h172v172z" fill="none"></path>
        <g>
            <path d="M20.0122 2C15.9043 2.00645 11.9662 3.63877 9.05919 6.53992C6.15218 9.44107 4.51293 13.3749 4.5 17.481C4.53736 19.1413 4.80918 20.788 5.30742 22.3723C6.16599 24.9914 7.70228 27.337 9.76046 29.1712L20.7707 38L30.264 29.1712C32.3118 27.3183 33.8458 24.9679 34.717 22.3478C35.1943 20.7594 35.4576 19.1145 35.5 17.4565C35.4871 13.3569 33.8504 9.42932 30.948 6.53275C28.0456 3.63619 24.1136 2.00645 20.0122 2V2ZM32.9554 21.7853C32.1771 24.1127 30.802 26.1955 28.9672 27.8261L20.6728 35.5788L10.886 27.8016C9.07869 26.1767 7.72182 24.1127 6.94672 21.8098C6.57199 20.3968 6.37473 18.9427 6.35951 17.481C6.35951 13.8616 7.79792 10.3905 10.3583 7.83128C12.9187 5.27202 16.3913 3.83424 20.0122 3.83424C23.6332 3.83424 27.1058 5.27202 29.6662 7.83128C32.2265 10.3905 33.665 13.8616 33.665 17.481C33.6335 18.9421 33.3946 20.3914 32.9554 21.7853Z"/>
            <path d="M29.6272 12.927C29.5274 12.1685 29.2645 11.4355 28.854 10.7704C28.4434 10.1053 27.8931 9.52123 27.2349 9.05185C25.8859 8.12487 24.2017 7.70414 22.5258 7.87546C21.6928 7.98532 20.8921 8.24584 20.1701 8.64184C19.4481 9.03784 18.8193 9.56142 18.3203 10.1821L11.6469 17.9094C10.6132 19.1352 10.1514 20.686 10.3626 22.2228C10.6222 23.7646 11.525 25.1539 12.8809 26.098C14.0004 26.8672 15.3595 27.2876 16.759 27.2975C17.7363 27.2975 18.7003 27.089 19.5745 26.6887C20.4486 26.2883 21.2091 25.707 21.7955 24.9908L28.3429 17.2174C28.8653 16.6204 29.2488 15.9318 29.4697 15.1939C29.6906 14.4561 29.7442 13.6846 29.6272 12.927ZM20.209 24.022C19.8568 24.4542 19.4147 24.8181 18.9081 25.0929C18.4015 25.3677 17.8405 25.5478 17.2575 25.6229C16.6745 25.6979 16.081 25.6664 15.5113 25.5302C14.9417 25.3941 14.4071 25.1558 13.9385 24.8294C13.4587 24.4939 13.0608 24.0702 12.7703 23.5856C12.4797 23.101 12.3029 22.5661 12.2513 22.0152C12.0984 20.9409 12.4152 19.8548 13.1327 18.9935L14.6688 17.2174L21.7451 22.2459L20.209 24.022ZM22.9035 20.8388L15.8272 15.8334L17.4389 13.942L24.5907 18.9705L22.9035 20.8388ZM26.8572 16.2255L25.6484 17.6095L18.5721 12.6041L19.8061 11.174C20.1618 10.7439 20.608 10.3835 21.1184 10.1141C21.6288 9.84466 22.193 9.67171 22.7776 9.60545C23.362 9.53043 23.9571 9.56756 24.525 9.71449C25.0929 9.86141 25.6213 10.1149 26.0765 10.4589C26.5399 10.7779 26.9282 11.1794 27.2181 11.6391C27.508 12.0989 27.6936 12.6076 27.7637 13.1346C27.9149 14.2267 27.5891 15.3293 26.8572 16.2025V16.2255Z"/>
        </g>
    </symbol>
    <symbol id="clinics" viewBox="0 0 40 40">
        <path d="M0,172v-172h172v172z" fill="none"></path>
        <g>
            <path d="M20.0122 2C15.9043 2.00645 11.9662 3.63877 9.05919 6.53992C6.15218 9.44107 4.51293 13.3749 4.5 17.481C4.53736 19.1413 4.80918 20.788 5.30742 22.3723C6.16599 24.9914 7.70228 27.337 9.76046 29.1712L20.7707 38L30.264 29.1712C32.3118 27.3183 33.8458 24.9679 34.717 22.3478C35.1943 20.7594 35.4576 19.1145 35.5 17.4565C35.4871 13.3569 33.8504 9.42932 30.948 6.53275C28.0456 3.63619 24.1136 2.00645 20.0122 2V2ZM32.9554 21.7853C32.1771 24.1127 30.802 26.1955 28.9672 27.8261L20.6728 35.5788L10.886 27.8016C9.07869 26.1766 7.72182 24.1127 6.94672 21.8098C6.57199 20.3968 6.37473 18.9427 6.35951 17.481C6.35951 13.8616 7.79792 10.3905 10.3583 7.83128C12.9187 5.27202 16.3913 3.83424 20.0122 3.83424C23.6332 3.83424 27.1058 5.27202 29.6662 7.83128C32.2265 10.3905 33.665 13.8616 33.665 17.481C33.6335 18.9421 33.3946 20.3914 32.9554 21.7853Z"/>
            <path d="M28 16.8978V19.1022H21.1022V26H18.8978V19.1022H12V16.8978H18.8978V10H21.1022V16.8978H28Z"/>
        </g>
    </symbol>
</svg>